<svg width="1110" height="224" viewBox="0 0 1110 224" fill="none" xmlns="http://www.w3.org/2000/svg">
<g clip-path="url(#clip0_44_31)">
<path d="M705.868 133.866L718.339 93.4504H726.884L739.355 133.866H734.332L731.214 123.646H714.009L710.891 133.866H705.868ZM715.221 119.258H729.944L723.016 96.3949H722.208L715.221 119.258ZM764.464 133.866V93.4504H780.803C783.305 93.4504 785.499 93.893 787.385 94.7783C789.31 95.6251 790.811 96.8568 791.888 98.4734C792.966 100.052 793.505 101.957 793.505 104.189V104.824C793.505 107.48 792.87 109.578 791.6 111.118C790.33 112.657 788.828 113.697 787.096 114.235V115.044C788.482 115.082 789.617 115.544 790.503 116.429C791.427 117.276 791.888 118.566 791.888 120.298V133.866H787.096V120.875C787.096 119.72 786.769 118.835 786.115 118.219C785.499 117.603 784.556 117.295 783.286 117.295H769.314V133.866H764.464ZM769.314 112.907H780.341C782.997 112.907 785.037 112.272 786.461 111.002C787.924 109.693 788.655 107.884 788.655 105.575V105.171C788.655 102.861 787.943 101.072 786.519 99.8013C785.095 98.4927 783.036 97.8383 780.341 97.8383H769.314V112.907ZM834.547 134.674C829.736 134.674 825.906 133.288 823.058 130.517C820.21 127.707 818.785 123.627 818.785 118.277V109.039C818.785 103.689 820.21 99.6281 823.058 96.8568C825.906 94.047 829.736 92.642 834.547 92.642C839.32 92.642 842.977 93.97 845.517 96.6258C848.096 99.2817 849.386 102.919 849.386 107.538V107.827H844.594V107.365C844.594 104.324 843.766 101.841 842.111 99.9168C840.494 97.9538 837.973 96.9723 834.547 96.9723C831.122 96.9723 828.447 98.0308 826.522 100.148C824.598 102.226 823.635 105.152 823.635 108.924V118.392C823.635 122.165 824.598 125.109 826.522 127.226C828.447 129.305 831.122 130.344 834.547 130.344C837.973 130.344 840.494 129.382 842.111 127.457C843.766 125.494 844.594 122.992 844.594 119.951V119.028H849.386V119.778C849.386 124.397 848.096 128.034 845.517 130.69C842.977 133.346 839.32 134.674 834.547 134.674ZM876.037 133.866V93.4504H880.887V129.478H901.325V133.866H876.037ZM926.608 133.866V93.4504H931.458V133.866H926.608ZM959.757 133.866V93.4504H969.168L983.255 130.806H984.006V93.4504H988.798V133.866H979.387L965.357 96.4526H964.549V133.866H959.757ZM1017.15 133.866V93.4504H1022V111.06H1022.81L1039.9 93.4504H1046.36L1026.68 113.427L1047.06 133.866H1040.42L1022.81 115.91H1022V133.866H1017.15Z" fill="white"/>
<path d="M568.286 144.626C567.749 145.962 567.772 147.445 568.368 148.755C568.963 150.065 570.083 151.096 571.462 151.613C572.841 152.13 574.362 152.089 575.672 151.494C576.982 150.898 577.974 149.796 578.448 148.437C578.448 148.437 578.448 148.437 578.448 148.437C579.027 146.723 580.02 144.736 581.144 142.846C592.145 125.757 609.407 110.807 628.096 101.429C637.378 97.0215 648.527 93.8385 656.52 98.7437C664.5 103.75 666.689 115.414 667.026 126.01C667.098 128.256 667.087 130.65 666.986 133.196C666.965 133.723 667.159 134.242 667.516 134.638C667.874 135.034 668.367 135.274 668.893 135.307C669.42 135.339 669.939 135.162 670.343 134.813C670.747 134.465 671.003 133.974 671.048 133.448C671.048 133.448 671.048 133.448 671.048 133.448C671.267 130.824 671.395 128.337 671.435 125.98C671.406 114.952 670.588 101.776 659.793 93.7925C648.463 86.4558 635.346 90.4497 625.044 94.6198C604.127 104.099 586.084 118.004 572.243 137.25C570.772 139.49 569.357 141.944 568.286 144.626Z" fill="#FA5209"/>
<rect x="515.367" y="1.36697" width="593.266" height="221.266" rx="9.56881" stroke="#FA5209" stroke-width="2.73395"/>
<path d="M49.5151 99.4919C58.6892 98.1095 60.1972 95.0934 60.1972 79.887V47.5891H26.3913V79.887C26.3913 95.0934 27.8993 98.1095 37.0735 99.4919V101H3.39316V99.4919C12.5673 98.1095 14.0753 95.0934 14.0753 79.887V21.5748C14.0753 6.36844 12.5673 3.35229 3.39316 1.96989V0.461821H37.0735V1.96989C27.8993 3.35229 26.3913 6.36844 26.3913 21.5748V44.3216H60.1972V21.5748C60.1972 6.36844 58.6892 3.35229 49.5151 1.96989V0.461821H83.1953V1.96989C74.0212 3.35229 72.5132 6.36844 72.5132 21.5748V79.887C72.5132 95.0934 74.0212 98.1095 83.1953 99.4919V101H49.5151V99.4919ZM85.0117 99.4919C94.1858 98.1095 95.6939 95.0934 95.6939 79.887V21.5748C95.6939 6.36844 94.1858 3.35229 85.0117 1.96989V0.461821H145.209V31.126L143.701 31.503L141.941 23.9626C136.161 5.86575 127.74 3.72931 119.32 3.72931H108.01V46.458H113.791C121.834 46.458 124.976 44.8243 128.62 32.1313L130.128 25.345L131.636 25.5964V70.5872L130.128 70.8385L128.62 64.0522C124.85 51.3593 121.834 49.7255 113.791 49.7255H108.01V97.7325H119.823C128.243 97.7325 136.538 94.3393 142.57 72.8493L144.204 65.3089L145.586 65.686V101H85.0117V99.4919ZM198.566 70.4615C192.157 53.7471 188.386 50.4796 181.851 50.4796H173.306V79.887C173.306 95.9731 175.191 98.2352 185.245 99.4919V101H150.308V99.4919C159.482 98.1095 160.99 95.0934 160.99 79.887V21.5748C160.99 6.36844 159.482 3.35229 150.308 1.96989V0.461821H176.322C197.058 0.461821 210.379 10.2643 210.379 25.345C210.379 38.1636 200.702 47.2121 185.747 49.5999L206.609 51.2336L210.128 103.388L208.62 103.765L198.566 70.4615ZM173.306 48.4688H176.07C189.643 48.4688 197.435 38.415 197.435 25.4707C197.435 11.898 189.517 2.72392 176.196 2.72392H173.306V48.4688ZM214.876 99.4919C224.93 95.8474 225.181 81.018 225.181 62.7955V21.5748C225.181 6.36844 223.673 3.35229 214.499 1.96989V0.461821H239.131L260.746 73.9804L281.231 0.461821H305.109V1.96989C295.935 3.35229 294.427 6.36844 294.427 21.5748V79.887C294.427 95.0934 295.935 98.1095 305.109 99.4919V101H271.429V99.4919C280.603 98.1095 282.111 95.0934 282.111 79.887V9.00756L256.725 101H255.342L228.448 8.88189V62.7955C228.448 81.018 229.202 95.8474 238.628 99.4919V101H214.876V99.4919ZM306.917 99.4919C316.091 98.1095 317.6 95.0934 317.6 79.887V21.5748C317.6 6.36844 316.091 3.35229 306.917 1.96989V0.461821H367.115V31.126L365.606 31.503L363.847 23.9626C358.066 5.86575 349.646 3.72931 341.226 3.72931H329.915V46.458H335.696C343.739 46.458 346.881 44.8243 350.526 32.1313L352.034 25.345L353.542 25.5964V70.5872L352.034 70.8385L350.526 64.0522C346.756 51.3593 343.739 49.7255 335.696 49.7255H329.915V97.7325H341.729C350.149 97.7325 358.443 94.3393 364.475 72.8493L366.109 65.3089L367.492 65.686V101H306.917V99.4919ZM400.112 102.257C390.059 102.257 382.77 99.2406 374.727 93.334V62.5441L376.109 62.2928L377.743 70.7129C382.77 90.0665 388.551 98.9892 400.364 98.9892C409.538 98.9892 415.193 94.088 415.193 84.9139C415.193 72.7236 406.522 63.5495 396.217 54.3754C384.152 43.5676 374.475 34.1421 374.475 20.9465C374.475 9.00756 384.529 -0.794912 399.484 -0.794912C408.281 -0.794912 415.57 2.09556 422.482 8.00218V37.0326L421.1 37.4096L419.34 29.2409C414.439 11.144 407.653 2.47258 398.856 2.47258C390.184 2.47258 384.906 7.75083 384.906 15.5425C384.906 25.8477 393.955 34.7705 405.014 44.95C417.078 56.2605 425.624 65.5603 425.624 80.1383C425.624 93.711 415.068 102.257 400.112 102.257ZM5.90662 224V205.4L21.9927 140.553C23.1238 135.778 23.5008 133.39 23.5008 131.254C23.5008 127.232 21.49 124.97 15.3321 124.97V123.462H38.2045L63.2134 224H30.1615V222.492C41.5977 222.366 46.6246 219.727 46.6246 213.066C46.6246 208.919 45.2422 203.013 44.1111 197.986L41.849 188.812L7.91738 224H5.90662ZM10.3052 201.505L41.095 186.424L27.5223 131.631L10.3052 201.505ZM94.8476 225.257C74.7399 225.257 62.6753 204.521 62.6753 173.103C62.6753 142.313 75.494 122.205 95.3503 122.205C106.284 122.205 112.567 125.096 119.856 131.128V160.787L118.474 161.038C112.316 134.395 106.535 125.473 95.9786 125.473C83.2857 125.473 75.7453 144.323 75.7453 173.103C75.7453 198.74 82.5316 221.989 96.4813 221.989C102.891 221.989 107.666 219.224 110.431 214.449V189.817C110.431 176.998 107.792 174.234 93.2138 173.103V171.594H120.987V216.711C113.321 222.115 106.032 225.257 94.8476 225.257ZM124.412 222.492C133.586 221.11 135.094 218.093 135.094 202.887V144.575C135.094 129.368 133.586 126.352 124.412 124.97V123.462H184.609V154.126L183.101 154.503L181.342 146.963C175.561 128.866 167.141 126.729 158.721 126.729H147.41V169.458H153.191C161.234 169.458 164.376 167.824 168.021 155.131L169.529 148.345L171.037 148.596V193.587L169.529 193.839L168.021 187.052C164.25 174.359 161.234 172.726 153.191 172.726H147.41V220.733H159.223C167.643 220.733 175.938 217.339 181.97 195.849L183.604 188.309L184.986 188.686V224H124.412V222.492ZM190.085 222.492C200.139 219.476 200.39 204.772 200.39 186.55V144.575C200.39 129.368 198.882 126.352 189.708 124.97V123.462H206.925L249.654 198.614V157.393C249.654 136.657 249.277 127.986 239.349 124.97V123.462H263.226V124.97C253.55 127.986 252.921 136.657 252.921 157.393V224H250.408L203.658 142.438V186.55C203.658 204.772 204.412 219.476 213.837 222.492V224H190.085V222.492ZM279.382 222.492C289.185 220.607 291.07 217.465 291.07 202.636V126.352H284.912C278 126.352 273.224 131.128 269.831 145.832L266.438 159.404L264.93 159.027V123.462H329.4V159.027L327.892 159.404L324.624 145.832C321.106 131.002 316.204 126.352 309.544 126.352H303.386V202.636C303.386 217.968 305.396 220.733 314.948 222.492V224H279.382V222.492Z" fill="#ECDECC"/>
</g>
<defs>
<clipPath id="clip0_44_31">
<rect width="1110" height="224" fill="white"/>
</clipPath>
</defs>
</svg>
