<svg width="896" height="130" viewBox="0 0 896 130" fill="none" xmlns="http://www.w3.org/2000/svg">
<path d="M241.388 100L263.4 28.6679H278.481L300.492 100H291.627L286.124 81.9632H255.757L250.254 100H241.388ZM257.897 74.2185H283.882L271.654 33.8649H270.227L257.897 74.2185ZM344.808 100V28.6679H373.647C378.062 28.6679 381.935 29.4492 385.264 31.0117C388.66 32.5062 391.31 34.6802 393.212 37.5335C395.114 40.3188 396.065 43.6816 396.065 47.6219V48.7428C396.065 53.4303 394.944 57.1328 392.702 59.8502C390.461 62.5676 387.811 64.4019 384.754 65.353V66.7796C387.2 66.8476 389.204 67.6628 390.766 69.2253C392.397 70.7199 393.212 72.9957 393.212 76.0528V100H384.754V77.0718C384.754 75.0338 384.177 73.4712 383.022 72.3843C381.935 71.2973 380.27 70.7538 378.028 70.7538H353.368V100H344.808ZM353.368 63.0092H372.831C377.519 63.0092 381.12 61.8883 383.633 59.6464C386.215 57.3366 387.505 54.1436 387.505 50.0675V49.3542C387.505 45.2781 386.249 42.1191 383.735 39.8772C381.221 37.5674 377.587 36.4125 372.831 36.4125H353.368V63.0092ZM468.504 101.427C460.012 101.427 453.252 98.981 448.225 94.0896C443.198 89.1303 440.684 81.9292 440.684 72.4862V56.1817C440.684 46.7387 443.198 39.5715 448.225 34.6802C453.252 29.7209 460.012 27.2413 468.504 27.2413C476.928 27.2413 483.382 29.585 487.866 34.2726C492.417 38.9601 494.693 45.38 494.693 53.5322V54.0417H486.235V53.2265C486.235 47.8596 484.774 43.4778 481.853 40.081C479 36.6163 474.55 34.884 468.504 34.884C462.458 34.884 457.736 36.7522 454.339 40.4886C450.943 44.1572 449.244 49.3202 449.244 55.9779V72.69C449.244 79.3477 450.943 84.5447 454.339 88.2812C457.736 91.9497 462.458 93.7839 468.504 93.7839C474.55 93.7839 479 92.0855 481.853 88.6888C484.774 85.2241 486.235 80.8083 486.235 75.4414V73.8109H494.693V75.1357C494.693 83.2879 492.417 89.7078 487.866 94.3953C483.382 99.0829 476.928 101.427 468.504 101.427ZM541.732 100V28.6679H550.291V92.2554H586.365V100H541.732ZM630.988 100V28.6679H639.548V100H630.988ZM689.495 100V28.6679H706.105L730.969 94.5991H732.294V28.6679H740.752V100H724.142L699.38 33.9669H697.953V100H689.495ZM790.793 100V28.6679H799.353V59.7483H800.779L830.943 28.6679H842.356L807.607 63.9263L843.579 100H831.86L800.779 68.3082H799.353V100H790.793Z" fill="white"/>
<path d="M6.50177 122.958C25.5237 72.2226 184.492 -48.1154 175.321 99.644" stroke="#FA5209" stroke-width="13" stroke-linecap="round"/>
</svg>
