<svg width="896" height="170" viewBox="0 0 896 170" fill="none" xmlns="http://www.w3.org/2000/svg">
<path d="M241.388 100L263.4 28.6679H278.481L300.492 100H291.627L286.124 81.9632H255.757L250.254 100H241.388ZM257.897 74.2185H283.882L271.654 33.8649H270.227L257.897 74.2185ZM344.808 100V28.6679H373.647C378.062 28.6679 381.935 29.4492 385.264 31.0117C388.66 32.5062 391.31 34.6802 393.212 37.5335C395.114 40.3188 396.065 43.6816 396.065 47.6219V48.7428C396.065 53.4303 394.944 57.1328 392.702 59.8502C390.461 62.5676 387.811 64.4019 384.754 65.353V66.7796C387.2 66.8476 389.204 67.6628 390.766 69.2253C392.397 70.7199 393.212 72.9957 393.212 76.0528V100H384.754V77.0718C384.754 75.0338 384.177 73.4712 383.022 72.3843C381.935 71.2973 380.27 70.7538 378.028 70.7538H353.368V100H344.808ZM353.368 63.0092H372.831C377.519 63.0092 381.12 61.8883 383.633 59.6464C386.215 57.3366 387.505 54.1436 387.505 50.0675V49.3542C387.505 45.2781 386.249 42.1191 383.735 39.8772C381.221 37.5674 377.587 36.4125 372.831 36.4125H353.368V63.0092ZM468.504 101.427C460.012 101.427 453.252 98.981 448.225 94.0896C443.198 89.1303 440.684 81.9292 440.684 72.4862V56.1817C440.684 46.7387 443.198 39.5715 448.225 34.6802C453.252 29.7209 460.012 27.2413 468.504 27.2413C476.928 27.2413 483.382 29.585 487.866 34.2726C492.417 38.9601 494.693 45.38 494.693 53.5322V54.0417H486.235V53.2265C486.235 47.8596 484.774 43.4778 481.853 40.081C479 36.6163 474.55 34.884 468.504 34.884C462.458 34.884 457.736 36.7522 454.339 40.4886C450.943 44.1572 449.244 49.3202 449.244 55.9779V72.69C449.244 79.3477 450.943 84.5447 454.339 88.2812C457.736 91.9497 462.458 93.7839 468.504 93.7839C474.55 93.7839 479 92.0855 481.853 88.6888C484.774 85.2241 486.235 80.8083 486.235 75.4414V73.8109H494.693V75.1357C494.693 83.2879 492.417 89.7078 487.866 94.3953C483.382 99.0829 476.928 101.427 468.504 101.427ZM541.732 100V28.6679H550.291V92.2554H586.365V100H541.732ZM630.988 100V28.6679H639.548V100H630.988ZM689.495 100V28.6679H706.105L730.969 94.5991H732.294V28.6679H740.752V100H724.142L699.38 33.9669H697.953V100H689.495ZM790.793 100V28.6679H799.353V59.7483H800.779L830.943 28.6679H842.356L807.607 63.9263L843.579 100H831.86L800.779 68.3082H799.353V100H790.793Z" fill="white"/>
<path d="M251.487 151.024H245.147V159.963H241.751V134.913H251.487C256.407 134.913 259.56 138.135 259.56 142.951C259.56 147.629 256.372 151.024 251.487 151.024ZM250.898 137.962H245.147V147.975H250.759C254.12 147.975 255.991 146 255.991 142.917C255.991 139.764 254.086 137.962 250.898 137.962ZM271.998 159.963H268.603V134.913H278.061C283.432 134.913 286.619 137.754 286.619 142.432C286.619 145.896 284.887 148.391 281.769 149.396L286.862 159.963H283.085L278.408 150.054H271.998V159.963ZM271.998 137.962V147.04H278.096C281.249 147.04 283.05 145.342 283.05 142.466C283.05 139.556 281.18 137.962 278.061 137.962H271.998ZM299.865 134.913V159.963H296.469V134.913H299.865ZM317.867 159.963L308.339 134.913H311.977L318.075 150.92C318.629 152.341 319.115 153.761 319.634 155.632C320.223 153.657 320.812 151.994 321.228 150.885L327.291 134.913H330.825L321.401 159.963H317.867ZM336.933 159.963H333.399L342.546 134.913H346.322L355.504 159.963H351.935L349.683 153.727H339.15L336.933 159.963ZM344.001 140.318L340.19 150.782H348.678L344.833 140.318C344.659 139.833 344.486 139.244 344.417 138.863C344.348 139.209 344.174 139.798 344.001 140.318ZM359.339 138.031V134.913H377.805V138.031H370.287V159.963H366.892V138.031H359.339ZM401.695 159.963H386.416V134.913H401.695V138.031H389.811V145.862H400.517V148.876H389.811V156.81H401.695V159.963ZM427.523 159.963H423.989L433.136 134.913H436.912L446.094 159.963H442.525L440.273 153.727H429.74L427.523 159.963ZM434.591 140.318L430.78 150.782H439.268L435.422 140.318C435.249 139.833 435.076 139.244 435.007 138.863C434.937 139.209 434.764 139.798 434.591 140.318ZM458.016 134.913V159.963H454.621V134.913H458.016ZM487.121 134.913V159.963H483.725V134.913H487.121ZM501.555 159.963H498.159V134.913H501.555L514.374 154.281V134.913H517.77V159.963H514.374L501.555 140.595V159.963ZM542.036 149.326H532.196V159.963H528.8V134.913H543.907V138.031H532.196V146.243H542.036V149.326ZM556.611 159.963H553.216V134.913H562.674C568.045 134.913 571.232 137.754 571.232 142.432C571.232 145.896 569.5 148.391 566.382 149.396L571.475 159.963H567.698L563.021 150.054H556.611V159.963ZM556.611 137.962V147.04H562.709C565.862 147.04 567.664 145.342 567.664 142.466C567.664 139.556 565.793 137.962 562.674 137.962H556.611ZM582.122 159.963H578.588L587.734 134.913H591.511L600.692 159.963H597.124L594.872 153.727H584.339L582.122 159.963ZM589.19 140.318L585.378 150.782H593.867L590.021 140.318C589.848 139.833 589.675 139.244 589.605 138.863C589.536 139.209 589.363 139.798 589.19 140.318ZM607.764 141.669C607.764 137.373 611.229 134.463 616.391 134.463C621.173 134.463 624.256 137.131 624.533 141.462H621.103C620.93 138.967 619.163 137.512 616.357 137.512C613.204 137.512 611.16 139.106 611.16 141.565C611.16 143.575 612.303 144.788 614.659 145.342L618.782 146.312C622.87 147.248 624.949 149.465 624.949 152.999C624.949 157.503 621.45 160.379 616.114 160.379C611.021 160.379 607.626 157.711 607.418 153.415H610.882C610.952 155.805 612.961 157.33 616.114 157.33C619.44 157.33 621.554 155.771 621.554 153.276C621.554 151.301 620.48 150.054 618.089 149.5L613.966 148.564C609.878 147.629 607.764 145.273 607.764 141.669ZM631.649 138.031V134.913H650.116V138.031H642.598V159.963H639.202V138.031H631.649ZM662.122 159.963H658.727V134.913H668.185C673.556 134.913 676.743 137.754 676.743 142.432C676.743 145.896 675.011 148.391 671.893 149.396L676.986 159.963H673.209L668.532 150.054H662.122V159.963ZM662.122 137.962V147.04H668.22C671.373 147.04 673.175 145.342 673.175 142.466C673.175 139.556 671.304 137.962 668.185 137.962H662.122ZM686.319 151.059V134.913H689.714V150.851C689.714 154.87 691.931 157.087 695.916 157.087C699.865 157.087 702.048 154.835 702.048 150.851V134.913H705.478V151.059C705.478 156.81 701.806 160.379 695.916 160.379C689.991 160.379 686.319 156.845 686.319 151.059ZM726.715 160.344C719.577 160.344 714.831 155.216 714.831 147.455C714.831 139.729 719.716 134.497 726.888 134.497C732.535 134.497 736.866 137.858 737.802 142.986H734.164C733.228 139.729 730.422 137.754 726.784 137.754C721.726 137.754 718.399 141.565 718.399 147.421C718.399 153.276 721.726 157.087 726.784 157.087C730.457 157.087 733.367 155.112 734.302 152.029H737.906C736.832 157.018 732.362 160.344 726.715 160.344ZM743.454 138.031V134.913H761.92V138.031H754.402V159.963H751.007V138.031H743.454ZM770.358 151.059V134.913H773.753V150.851C773.753 154.87 775.971 157.087 779.955 157.087C783.905 157.087 786.088 154.835 786.088 150.851V134.913H789.518V151.059C789.518 156.81 785.845 160.379 779.955 160.379C774.03 160.379 770.358 156.845 770.358 151.059ZM803.755 159.963H800.36V134.913H809.819C815.189 134.913 818.376 137.754 818.376 142.432C818.376 145.896 816.644 148.391 813.526 149.396L818.619 159.963H814.842L810.165 150.054H803.755V159.963ZM803.755 137.962V147.04H809.853C813.006 147.04 814.808 145.342 814.808 142.466C814.808 139.556 812.937 137.962 809.819 137.962H803.755ZM843.506 159.963H828.226V134.913H843.506V138.031H831.622V145.862H842.328V148.876H831.622V156.81H843.506V159.963Z" fill="white"/>
<path d="M6.50177 122.958C25.5237 72.2226 184.492 -48.1154 175.321 99.644" stroke="#FA5209" stroke-width="13" stroke-linecap="round"/>
</svg>
